<svg width="55" height="55" viewBox="0 0 55 55" fill="none" xmlns="http://www.w3.org/2000/svg">
<path d="M27.5 55C42.6878 55 55 42.6878 55 27.5C55 12.3122 42.6878 0 27.5 0C12.3122 0 0 12.3122 0 27.5C0 42.6878 12.3122 55 27.5 55Z" fill="#88C9F9"/>
    <g>
    <svg width="50" height="50" y="3" viewBox="0 0 43 52" fill="none" xmlns="http://www.w3.org/2000/svg">
    <path d="M41.0318 34.2817C39.4781 33.6858 39.7546 33.9028 38.7967 31.8663C37.8388 29.8313 37.2582 29.1758 35.104 28.9375C32.9484 28.7007 33.0293 28.8688 32.4304 27.7917C31.8315 26.7131 29.4024 28.0835 27.8471 28.6839C26.2872 29.2828 26.6722 30.5875 26.1925 30.4653C25.7113 30.3461 24.5013 30.036 23.3004 29.0796C22.1027 28.1202 24.1911 27.3715 24.7915 26.7742C25.392 26.1738 23.661 26.5007 23.0606 26.1386C22.4602 25.7811 21.3861 26.8582 20.4282 25.8972C19.4688 24.9393 20.0692 23.5017 19.95 22.3039C19.8293 21.1046 21.5053 20.8663 22.5839 20.6264C23.661 20.3881 24.4982 20.6279 24.4982 22.064C24.4982 23.5017 25.8167 23.9814 25.4577 22.3024C25.0986 20.6233 25.8167 20.1467 26.2979 19.3079C26.7761 18.4692 27.6149 17.2699 28.692 15.4732C29.7706 13.6765 30.4902 14.5138 31.8071 14.6421C33.1256 14.772 33.4846 14.5153 34.4425 14.636C35.3974 14.7567 34.4425 13.4382 34.8031 12.1213C35.1606 10.8043 36.479 11.0427 37.799 11.4032C39.116 11.7622 36.479 9.72418 36.0009 8.6471C35.5196 7.56849 34.2027 8.6471 33.367 6.85043C32.5221 5.05376 31.3442 3.89112 30.2656 3.73071C29.187 3.56876 30.6093 6.01321 29.7706 7.33015C28.9288 8.6471 27.6393 8.44085 26.3178 8.44085C25.0024 8.44085 23.7802 7.33015 24.7396 5.65265C25.696 3.97668 27.5247 4.14932 28.4827 2.71168C29.4421 1.27557 25.0757 1.40696 23.5174 0.928763C21.959 0.449041 20.089 0.453624 18.5322 1.6514C16.9739 2.84765 13.6418 3.22196 12.3233 3.70015C11.0064 4.17835 10.7696 2.90571 10.5313 1.94626C10.4243 1.52001 9.93849 1.38557 9.25405 1.40085C5.86238 3.27085 2.92446 5.84973 0.597656 8.91904C0.95974 10.152 2.71363 8.63029 3.05738 8.28654C3.41641 7.92751 5.21307 8.40724 5.45141 9.72418C5.69127 11.0411 5.5721 12.4818 5.09391 13.6796C4.61418 14.8758 6.29168 16.5533 7.2496 18.2308C8.20904 19.9099 9.28613 19.9083 9.76585 19.9083C10.244 19.9083 13.0002 20.987 12.8795 22.3039C12.7603 23.6224 15.3957 24.8186 16.4743 25.6574C17.5529 26.4992 18.2343 27.3257 19.6338 27.5671C21.0347 27.8085 22.6725 30.0986 23.3906 30.34C23.9421 30.5233 24.8756 31.4049 25.4393 31.6783C24.6984 32.6164 23.2638 34.5429 23.2638 35.4306C23.2638 36.6314 24.8297 38.5182 25.4286 38.9964C26.026 39.4731 27.7463 39.8367 28.1022 41.0329C28.4628 42.2307 27.8517 46.2625 26.7761 47.3396C25.6945 48.4167 25.3018 50.9635 25.3018 50.9635C25.3018 50.9635 25.6822 51.79 26.9564 50.9635C28.365 50.0514 30.7239 47.4542 31.6665 46.8889C33.4632 45.8088 35.2095 44.4979 36.887 42.9426C38.5645 41.3858 37.9564 40.295 38.7967 38.7413C39.6354 37.1845 40.7202 37.2547 42.1563 35.9408C43.5954 34.6208 42.5902 34.8821 41.0318 34.2817Z" fill="#5C913B"/>
    </svg>
    </g>

</svg>
